Coordinates
version=1
nRows=32
nColumns=22
inDegrees=yes

Units are S.I. units (second, meters, Newtons, ...)
If the header above contains a line with 'inDegrees', this indicates whether rotational values are in degrees (yes) or radians (no).

endheader
time	pelvis_tilt	pelvis_list	pelvis_rotation	pelvis_tx	pelvis_ty	pelvis_tz	hip_flexion_r	hip_adduction_r	hip_rotation_r	knee_angle_r	ankle_angle_r	subtalar_angle_r	hip_flexion_l	hip_adduction_l	hip_rotation_l	knee_angle_l	ankle_angle_l	subtalar_angle_l	lumbar_extension	lumbar_bending	lumbar_rotation
      4.09000000	      1.12979269	     -3.88220250	    -79.02676599	      0.03012322	      1.00215855	      0.47701256	     20.60876051	     -0.35518248	    -13.33627969	    -13.97089401	      0.92973464	      1.17821225	     -7.05001142	      1.78467643	    -12.76908978	    -17.93890670	     18.50752115	      2.10927845	    -16.85937149	     -1.20411609	     -3.34533941
      4.10000000	      1.13330587	     -3.93707103	    -79.03189076	      0.03109789	      1.00126770	      0.48389653	     20.54018320	     -0.28914506	    -12.81107398	    -14.16934886	      0.71491740	      1.18772147	     -7.38492241	      1.72030264	    -12.71209924	    -18.26687210	     18.69340285	      2.31040007	    -16.75397479	     -1.13270844	     -3.39827405
      4.11000000	      1.11506996	     -3.99705584	    -79.02748729	      0.03201462	      1.00041968	      0.49089916	     20.47603739	     -0.20634999	    -12.35357844	    -14.52505428	      0.35141307	      1.06742623	     -7.69335775	      1.61523205	    -12.64893411	    -18.66213448	     18.83706169	      2.60139933	    -16.63862005	     -1.03694219	     -3.42016543
      4.12000000	      1.07473465	     -4.04005251	    -79.00515198	      0.03290629	      0.99960372	      0.49802572	     20.44159266	     -0.11614768	    -11.99083077	    -15.02073297	     -0.17412680	      0.76029985	     -7.97176332	      1.48441888	    -12.53057293	    -19.07865807	     18.96358341	      2.88865042	    -16.48345611	     -0.91267368	     -3.46852572
      4.13000000	      1.01789735	     -4.07610053	    -78.97219502	      0.03375267	      0.99884868	      0.50526586	     20.43684717	     -0.02338734	    -11.73676814	    -15.64872563	     -0.81747072	      0.21652256	     -8.22592551	      1.32952013	    -12.38036617	    -19.52984277	     19.06668412	      3.19566455	    -16.30350909	     -0.76934219	     -3.52381533
      4.14000000	      0.92502571	     -4.10579391	    -78.93699737	      0.03451284	      0.99818023	      0.51258956	     20.46606998	      0.09527242	    -11.58485337	    -16.38118128	     -1.51017868	     -0.51569019	     -8.44277284	      1.13157294	    -12.18287415	    -20.02944409	     19.10593698	      3.49902792	    -16.10264960	     -0.59252047	     -3.55641651
      4.15000000	      0.79613437	     -4.13110019	    -78.90288664	      0.03518414	      0.99762238	      0.51998233	     20.52902937	      0.23982383	    -11.51469231	    -17.19835234	     -2.14751583	     -1.40032567	     -8.62127533	      0.88974028	    -11.95864245	    -20.58097281	     19.08993363	      3.81190043	    -15.88492398	     -0.37972672	     -3.57396326
      4.16000000	      0.62303665	     -4.15623669	    -78.88088724	      0.03573679	      0.99720349	      0.52742636	     20.61406245	      0.42841250	    -11.47284747	    -18.06798151	     -2.63909545	     -2.32486676	     -8.75760611	      0.59777694	    -11.69970268	    -21.19462868	     19.01957614	      4.12927568	    -15.65887880	     -0.12606917	     -3.57139786
      4.17000000	      0.42248343	     -4.19196263	    -78.89441933	      0.03617149	      0.99695611	      0.53494115	     20.71025945	      0.65061142	    -11.43701306	    -18.99195348	     -2.92611012	     -3.19323023	     -8.87810906	      0.27639539	    -11.45820892	    -21.84993631	     18.87338272	      4.45453524	    -15.43915399	      0.15227693	     -3.53199034
      4.18000000	      0.21330652	     -4.24419477	    -78.96626618	      0.03648229	      0.99689043	      0.54256510	     20.78848228	      0.90127613	    -11.35546468	    -19.93742535	     -2.93965582	     -3.98867976	     -9.00713395	     -0.04645949	    -11.24019766	    -22.52656942	     18.64804221	      4.81710115	    -15.23287806	      0.43048289	     -3.43697731
      4.19000000	     -0.01856541	     -4.32057323	    -79.09392395	      0.03669647	      0.99703211	      0.55030594	     20.80757858	      1.20142221	    -11.21814183	    -20.83660893	     -2.76551624	     -4.59031754	     -9.14865835	     -0.38670920	    -11.04668312	    -23.22930463	     18.33450307	      5.19565608	    -15.04593547	      0.73139537	     -3.29193873
      4.20000000	     -0.26577865	     -4.42140803	    -79.27163218	      0.03682911	      0.99737044	      0.55816516	     20.74048302	      1.54494703	    -11.03279229	    -21.64711780	     -2.42678829	     -4.99554716	     -9.30089242	     -0.74065754	    -10.88902805	    -23.96339718	     17.93953554	      5.58556293	    -14.88043687	      1.04779387	     -3.10898258
      4.21000000	     -0.52714828	     -4.53794056	    -79.48598043	      0.03689529	      0.99788398	      0.56611050	     20.57897326	      1.92519020	    -10.83142604	    -22.33229034	     -1.99007890	     -5.26085713	     -9.44955177	     -1.10730593	    -10.74866177	    -24.73404326	     17.44792925	      6.02906499	    -14.72994329	      1.37827470	     -2.90854102
      4.22000000	     -0.80063686	     -4.65869222	    -79.71519832	      0.03693610	      0.99853146	      0.57407410	     20.32258320	      2.33071529	    -10.63844003	    -22.86344888	     -1.49879467	     -5.41316408	     -9.56420060	     -1.48822863	    -10.61167944	    -25.56648252	     16.86899721	      6.53120664	    -14.58860564	      1.73183606	     -2.71811149
      4.23000000	     -1.08606735	     -4.76865418	    -79.93265667	      0.03690747	      0.99926162	      0.58199291	     19.99019828	      2.75550310	    -10.48351612	    -23.23919654	     -0.98136235	     -5.49689505	     -9.60759487	     -1.89744466	    -10.47033813	    -26.48620158	     16.21318641	      7.06038371	    -14.44559059	      2.09016607	     -2.55356637
      4.24000000	     -1.36404456	     -4.85959775	    -80.12911177	      0.03683330	      1.00006781	      0.58982714	     19.58510738	      3.18144804	    -10.33211667	    -23.44829569	     -0.49149256	     -5.55823386	     -9.57599392	     -2.30655316	    -10.27843648	    -27.47974723	     15.44326981	      7.71282425	    -14.29712787	      2.43694365	     -2.43912429
      4.25000000	     -1.64396227	     -4.91871622	    -80.29983094	      0.03673225	      1.00087330	      0.59754742	     19.14992291	      3.60203168	    -10.24275752	    -23.53729315	     -0.01043227	     -5.62289941	     -9.43425816	     -2.73651130	    -10.08415873	    -28.58219045	     14.60819304	      8.32002181	    -14.12695933	      2.78134449	     -2.35490342
      4.26000000	     -1.90327423	     -4.94615632	    -80.44891373	      0.03661387	      1.00169255	      0.60514538	     18.69161693	      3.99543576	    -10.19043299	    -23.52365624	      0.45279399	     -5.70420908	     -9.19443162	     -3.15769750	     -9.87250981	    -29.77197952	     13.65812377	      8.96256128	    -13.93812377	      3.09650099	     -2.29265786
      4.27000000	     -2.16805652	     -4.93548833	    -80.56056118	      0.03649738	      1.00249105	      0.61259262	     18.22388058	      4.38885516	    -10.15579343	    -23.40180350	      0.86105954	     -5.79283504	     -8.83174286	     -3.60050412	     -9.62117150	    -31.06819789	     12.65106763	      9.51148611	    -13.71667857	      3.41578352	     -2.28218288
      4.28000000	     -2.41380039	     -4.90271843	    -80.66139815	      0.03639174	      1.00327736	      0.61988653	     17.77152292	      4.74730035	    -10.17593425	    -23.25956409	      1.22921751	     -5.88105538	     -8.38076020	     -4.03510870	     -9.36938206	    -32.44776113	     11.52947731	      9.98850486	    -13.48842893	      3.71165498	     -2.26261021
      4.29000000	     -2.62873730	     -4.82910944	    -80.75042844	      0.03627590	      1.00402701	      0.62701334	     17.33992770	      5.07210003	    -10.16728753	    -23.06741470	      1.58371945	     -5.98011110	     -7.82028502	     -4.44172234	     -9.09318570	    -33.91201020	     10.34783304	     10.50979994	    -13.23239710	      3.96245539	     -2.25759204
      4.30000000	     -2.80092876	     -4.70691160	    -80.84886191	      0.03612567	      1.00469994	      0.63397161	     16.95957776	      5.35097399	    -10.10808740	    -22.87331119	      1.96605188	     -6.09052161	     -7.15222879	     -4.80000678	     -8.80641036	    -35.44944291	      9.14061867	     11.07483731	    -12.94423440	      4.14922667	     -2.24585213
      4.31000000	     -2.99206001	     -4.60205208	    -80.93823677	      0.03601686	      1.00536687	      0.64073746	     16.57236673	      5.63859868	    -10.10037699	    -22.66829871	      2.24995409	     -6.16317292	     -6.42583268	     -5.19694048	     -8.53290134	    -37.07880542	      7.95085685	     11.38883063	    -12.69285922	      4.36902934	     -2.22058062
      4.32000000	     -3.15223267	     -4.43219668	    -81.04108537	      0.03587284	      1.00588947	      0.64730026	     16.27479823	      5.88639205	    -10.05143852	    -22.49017041	      2.56029597	     -6.24861539	     -5.56492554	     -5.55596847	     -8.26311164	    -38.78981511	      6.83170004	     11.75952772	    -12.39270855	      4.53549609	     -2.18154015
      4.33000000	     -3.29682642	     -4.24276181	    -81.16057665	      0.03570238	      1.00632638	      0.65365904	     16.01974980	      6.11596166	     -9.97757549	    -22.33351465	      2.86278754	     -6.33221173	     -4.62463658	     -5.90030121	     -8.01092983	    -40.56351340	      5.81237344	     12.08689294	    -12.09628339	      4.67737131	     -2.11884350
      4.34000000	     -3.42841534	     -4.01580214	    -81.29198798	      0.03550757	      1.00664239	      0.65980303	     15.82916898	      6.32797783	     -9.87202409	    -22.20136005	      3.16090505	     -6.42092086	     -3.58732881	     -6.22694022	     -7.76798803	    -42.38521751	      4.93309086	     12.39153754	    -11.78222080	      4.79506610	     -2.04053535
      4.35000000	     -3.55460785	     -3.80137039	    -81.43985132	      0.03528452	      1.00691785	      0.66573960	     15.64893675	      6.53579058	     -9.76062658	    -22.09101135	      3.43892140	     -6.50725039	     -2.51897594	     -6.55652500	     -7.56086741	    -44.21964609	      4.18276477	     12.61999048	    -11.51092708	      4.90468446	     -1.92746168
      4.36000000	     -3.64052244	     -3.53253822	    -81.59527592	      0.03503001	      1.00706720	      0.67145738	     15.54828002	      6.69935126	     -9.58475527	    -22.01062813	      3.75021405	     -6.60979093	     -1.36285914	     -6.82356443	     -7.34010758	    -46.02479407	      3.59892329	     12.83616540	    -11.20261322	      4.95264178	     -1.81258488
      4.37000000	     -3.76348630	     -3.34625590	    -81.76630853	      0.03475957	      1.00729510	      0.67700977	     15.37479111	      6.91218045	     -9.43921367	    -21.92400781	      3.97493656	     -6.69526732	     -0.27249830	     -7.16252596	     -7.19340531	    -47.76828407	      3.19410761	     12.91855410	    -11.00592210	      5.05640310	     -1.63871728
      4.38000000	     -3.82500693	     -3.10486132	    -81.93820693	      0.03445943	      1.00743188	      0.68234357	     15.28081778	      7.05660970	     -9.24205790	    -21.87425970	      4.25269149	     -6.80229848	      0.88126994	     -7.41456904	     -7.03451129	    -49.40274568	      2.94634584	     12.94940481	    -10.77286414	      5.07133162	     -1.47045866
      4.39000000	     -3.90898992	     -2.93912463	    -82.12140344	      0.03413143	      1.00768831	      0.68754023	     15.09656339	      7.24369379	     -9.02733370	    -21.78038590	      4.45950467	     -6.89433651	      1.94385656	     -7.70878250	     -6.91454331	    -50.88665764	      2.92499197	     12.85871243	    -10.63607440	      5.11830426	     -1.24753420
      4.40000000	     -3.98305043	     -2.82914855	    -82.32493674	      0.03375449	      1.00802511	      0.69255888	     14.87391395	      7.42828220	     -8.82134040	    -21.71101278	      4.65596340	     -6.97964411	      2.92806342	     -8.00888327	     -6.84933815	    -52.20104524	      3.09504982	     12.67952809	    -10.58467666	      5.15267779	     -0.98659895
